<svg version="1.2" baseProfile="tiny-ps" xmlns="http://www.w3.org/2000/svg" viewBox="0 0 750 498" width="750" height="498">
	<title>2625424-ai</title>
	<defs>
		<radialGradient id="grd1" gradientUnits="userSpaceOnUse"  cx="375" cy="250" r="496.395">
			<stop offset="0" stop-color="#27272e"  />
			<stop offset="1" stop-color="#131116"  />
		</radialGradient>
		<linearGradient id="grd2" gradientUnits="userSpaceOnUse"  x1="0" y1="218.544" x2="565.914" y2="218.544">
			<stop offset="0" stop-color="#f42f2e"  />
			<stop offset="1" stop-color="#ff3c48"  />
		</linearGradient>
		<linearGradient id="grd3" gradientUnits="userSpaceOnUse"  x1="439.1" y1="29.055" x2="750" y2="29.055">
			<stop offset="0" stop-color="#f42f2e"  />
			<stop offset="1" stop-color="#ff3c48"  />
		</linearGradient>
		<clipPath clipPathUnits="userSpaceOnUse" id="cp1">
			<path d="M750 0L750 41.05L622.51 172.05C571.95 210.05 518.56 239.14 462.36 259.31L462.36 0L750 0Z" />
		</clipPath>
		<clipPath clipPathUnits="userSpaceOnUse" id="cp2">
			<path d="M0 500L0 340.48C145.44 383.9 289.15 373.42 431.13 309.05C393.9 368.45 314.66 432.1 193.39 500L0 500Z" />
		</clipPath>
		<radialGradient id="grd4" gradientUnits="userSpaceOnUse"  cx="527.38" cy="168.675" r="39.02">
			<stop offset="0" stop-color="#ffffff" stop-opacity="0.4" />
			<stop offset="1" stop-color="#ffffff" stop-opacity="0" />
		</radialGradient>
		<radialGradient id="grd5" gradientUnits="userSpaceOnUse"  cx="237.471" cy="309.055" r="39.02">
			<stop offset="0" stop-color="#ffffff" stop-opacity="0.4" />
			<stop offset="1" stop-color="#ffffff" stop-opacity="0" />
		</radialGradient>
		<radialGradient id="grd6" gradientUnits="userSpaceOnUse"  cx="183.882" cy="362.055" r="39.02">
			<stop offset="0" stop-color="#ffffff" stop-opacity="0.5" />
			<stop offset="1" stop-color="#ffffff" stop-opacity="0" />
		</radialGradient>
		<radialGradient id="grd7" gradientUnits="userSpaceOnUse"  cx="613.18" cy="232.477" r="54.82">
			<stop offset="0" stop-color="#ffffff" stop-opacity="0.4" />
			<stop offset="1" stop-color="#ffffff" stop-opacity="0" />
		</radialGradient>
		<radialGradient id="grd8" gradientUnits="userSpaceOnUse"  cx="403.847" cy="349.307" r="54.82">
			<stop offset="0" stop-color="#ffffff" stop-opacity="0.7" />
			<stop offset="1" stop-color="#ffffff" stop-opacity="0" />
		</radialGradient>
	</defs>
	<style>
		tspan { white-space:pre }
		.shp0 { fill: url(#grd1) } 
		.shp1 { fill: url(#grd2) } 
		.shp2 { fill: url(#grd3) } 
		.shp3 { fill: #ffffff } 
		.shp4 { fill: none;stroke: #ffffff } 
		.shp5 { opacity: 0.2;fill: none;stroke: #ffffff } 
		.shp6 { opacity: 0.239;fill: none;stroke: #ffffff } 
		.shp7 { opacity: 0.275;fill: none;stroke: #ffffff } 
		.shp8 { opacity: 0.314;fill: none;stroke: #ffffff } 
		.shp9 { opacity: 0.353;fill: none;stroke: #ffffff } 
		.shp10 { opacity: 0.392;fill: none;stroke: #ffffff } 
		.shp11 { opacity: 0.427;fill: none;stroke: #ffffff } 
		.shp12 { opacity: 0.467;fill: none;stroke: #ffffff } 
		.shp13 { opacity: 0.506;fill: none;stroke: #ffffff } 
		.shp14 { opacity: 0.541;fill: none;stroke: #ffffff } 
		.shp15 { opacity: 0.58;fill: none;stroke: #ffffff } 
		.shp16 { opacity: 0.62;fill: none;stroke: #ffffff } 
		.shp17 { opacity: 0.659;fill: none;stroke: #ffffff } 
		.shp18 { opacity: 0.694;fill: none;stroke: #ffffff } 
		.shp19 { opacity: 0.733;fill: none;stroke: #ffffff } 
		.shp20 { opacity: 0.773;fill: none;stroke: #ffffff } 
		.shp21 { opacity: 0.808;fill: none;stroke: #ffffff } 
		.shp22 { opacity: 0.847;fill: none;stroke: #ffffff } 
		.shp23 { opacity: 0.886;fill: none;stroke: #ffffff } 
		.shp24 { opacity: 0.925;fill: none;stroke: #ffffff } 
		.shp25 { opacity: 0.961;fill: none;stroke: #ffffff } 
		.shp26 { opacity: 0.4;fill: url(#grd4) } 
		.shp27 { opacity: 0.4;fill: url(#grd5) } 
		.shp28 { opacity: 0.4;fill: url(#grd6) } 
		.shp29 { opacity: 0.4;fill: url(#grd7) } 
		.shp30 { opacity: 0.4;fill: url(#grd8) } 
	</style>
	<g id="BACKGROUND 2">
		<g id="&lt;Group&gt;">
			<path id="&lt;Path&gt;" class="shp0" d="M750 500L0 500L0 0L750 0L750 500Z" />
			<g id="&lt;Group&gt;">
				<g id="&lt;Group&gt;">
					<path id="&lt;Path&gt;" class="shp1" d="M0 296C231.24 339.37 419.88 314.02 565.91 219.96C431.54 350.69 242.91 389.04 0 335L0 296Z" />
				</g>
				<path id="&lt;Path&gt;" class="shp2" d="M750 81.05C677.57 194.39 573.94 271.72 439.1 313.05C547.27 269.72 650.91 175.72 750 31.05L750 81.05Z" />
			</g>
			<g id="&lt;Group&gt;">
				<g id="&lt;Clip Group&gt;" clip-path="url(#cp1)">
					<g id="&lt;Group&gt;">
						<g id="&lt;Group&gt;" style="opacity: 0.2">
							<path id="&lt;Path&gt;" class="shp3" d="M451.69 269.05C456.52 264.95 461.09 260.56 465.58 256.09C470.05 251.6 474.42 247.01 478.63 242.28C487.1 232.86 495.11 223.03 502.62 212.83C517.63 192.42 530.7 170.58 541.31 147.59C542.01 146.17 542.63 144.71 543.26 143.26L545.14 138.9L547.02 134.54L548.74 130.12L550.46 125.69C551.03 124.22 551.62 122.75 552.12 121.24L555.21 112.27C555.75 110.78 556.17 109.26 556.63 107.74L558 103.2L559.36 98.65C559.79 97.13 560.15 95.58 560.55 94.05C561.32 90.99 562.13 87.93 562.87 84.85L564.8 75.56C565.1 74 565.49 72.47 565.71 70.9L566.46 66.22L567.22 61.53C567.46 59.97 567.76 58.41 567.9 56.84C568.57 50.55 569.45 44.28 569.71 37.95C570.73 25.33 570.41 12.66 569.86 0.03L570.86 -0.03C571.37 12.64 571.65 25.36 570.59 38.01C570.3 44.35 569.4 50.64 568.7 56.95C568.56 58.53 568.25 60.08 568 61.65L567.23 66.35L566.47 71.04C566.24 72.61 565.84 74.15 565.53 75.7L563.57 85.01C562.81 88.09 561.99 91.16 561.21 94.23C560.81 95.76 560.44 97.31 560.01 98.83L558.63 103.38L557.24 107.93C556.78 109.45 556.35 110.98 555.8 112.46L552.67 121.45C552.18 122.95 551.57 124.42 551 125.9L549.26 130.32L547.52 134.75L545.63 139.11L543.73 143.47C543.1 144.92 542.47 146.38 541.76 147.8C531.07 170.79 517.9 192.61 502.82 212.98C495.27 223.16 487.22 232.97 478.73 242.37C474.49 247.08 470.11 251.66 465.62 256.13C461.12 260.59 456.53 264.96 451.69 269.05Z" />
						</g>
						<g id="&lt;Group&gt;" style="opacity: 0.239">
							<path id="&lt;Path&gt;" class="shp4" d="M458.71 265.47C543.48 195.54 583.7 107.05 579.38 0" />
						</g>
						<g id="&lt;Group&gt;" style="opacity: 0.275">
							<path id="&lt;Path&gt;" class="shp4" d="M465.73 261.88C549.49 192.69 590.38 105.39 588.39 0" />
						</g>
						<g id="&lt;Group&gt;" style="opacity: 0.314">
							<path id="&lt;Path&gt;" class="shp4" d="M472.74 258.29C555.5 189.84 597.06 103.74 597.41 0" />
						</g>
						<g id="&lt;Group&gt;" style="opacity: 0.353">
							<path id="&lt;Path&gt;" class="shp4" d="M479.76 254.71C561.51 186.99 603.73 102.09 606.42 0" />
						</g>
						<g id="&lt;Group&gt;" style="opacity: 0.392">
							<path id="&lt;Path&gt;" class="shp4" d="M486.77 251.12C567.52 184.14 610.41 100.43 615.44 0" />
						</g>
						<g id="&lt;Group&gt;" style="opacity: 0.427">
							<path id="&lt;Path&gt;" class="shp4" d="M493.79 247.53C573.53 181.29 617.09 98.78 624.46 0" />
						</g>
						<g id="&lt;Group&gt;" style="opacity: 0.467">
							<path id="&lt;Path&gt;" class="shp4" d="M500.8 243.94C579.54 178.44 623.76 97.12 633.47 0" />
						</g>
						<g id="&lt;Group&gt;" style="opacity: 0.506">
							<path id="&lt;Path&gt;" class="shp4" d="M507.82 240.36C585.55 175.59 630.44 95.47 642.49 0" />
						</g>
						<g id="&lt;Group&gt;" style="opacity: 0.541">
							<path id="&lt;Path&gt;" class="shp4" d="M514.84 236.77C591.56 172.74 637.11 93.81 651.5 0" />
						</g>
						<g id="&lt;Group&gt;" style="opacity: 0.58">
							<path id="&lt;Path&gt;" class="shp4" d="M521.85 233.18C597.57 169.89 643.79 92.16 660.52 0" />
						</g>
						<g id="&lt;Group&gt;" style="opacity: 0.62">
							<path id="&lt;Path&gt;" class="shp4" d="M528.87 229.59C603.58 167.04 650.47 90.51 669.53 0" />
						</g>
						<g id="&lt;Group&gt;" style="opacity: 0.659">
							<path id="&lt;Path&gt;" class="shp4" d="M535.88 226.01C609.59 164.19 657.14 88.85 678.55 0" />
						</g>
						<g id="&lt;Group&gt;" style="opacity: 0.694">
							<path id="&lt;Path&gt;" class="shp4" d="M542.9 222.42C615.6 161.34 663.82 87.2 687.57 0" />
						</g>
						<g id="&lt;Group&gt;" style="opacity: 0.733">
							<path id="&lt;Path&gt;" class="shp4" d="M549.92 218.83C621.61 158.49 670.5 85.54 696.58 0" />
						</g>
						<g id="&lt;Group&gt;" style="opacity: 0.773">
							<path id="&lt;Path&gt;" class="shp4" d="M556.93 215.25C627.62 155.64 677.17 83.89 705.6 0" />
						</g>
						<g id="&lt;Group&gt;" style="opacity: 0.808">
							<path id="&lt;Path&gt;" class="shp4" d="M563.95 211.66C633.63 152.79 683.85 82.23 714.61 0" />
						</g>
						<g id="&lt;Group&gt;" style="opacity: 0.847">
							<path id="&lt;Path&gt;" class="shp4" d="M570.96 208.07C639.64 149.94 690.53 80.58 723.63 0" />
						</g>
						<g id="&lt;Group&gt;" style="opacity: 0.886">
							<path id="&lt;Path&gt;" class="shp4" d="M577.98 204.48C645.65 147.09 697.2 78.93 732.65 0" />
						</g>
						<g id="&lt;Group&gt;" style="opacity: 0.925">
							<path id="&lt;Path&gt;" class="shp4" d="M584.99 200.9C651.66 144.24 703.88 77.27 741.66 0" />
						</g>
						<g id="&lt;Group&gt;" style="opacity: 0.961">
							<path id="&lt;Path&gt;" class="shp4" d="M592.01 197.31C657.67 141.39 710.55 75.62 750.68 0" />
						</g>
						<g id="&lt;Group&gt;">
							<path id="&lt;Path&gt;" class="shp3" d="M599.03 193.72C614.82 179.79 629.88 165.05 644.47 149.88C659.09 134.72 673.09 118.98 686.58 102.82L691.63 96.75L694.15 93.72L696.6 90.62L706.4 78.24C709.62 74.08 712.71 69.82 715.88 65.62L720.6 59.29C722.14 57.16 723.63 54.99 725.14 52.84L734.19 39.91L742.8 26.68L747.1 20.06L751.16 13.29L759.26 -0.25L760.13 0.25L751.96 13.78L747.87 20.54L743.54 27.15L734.87 40.36L725.75 53.27C724.23 55.42 722.73 57.58 721.18 59.72L716.43 66.03C713.25 70.22 710.13 74.47 706.89 78.62L697.04 90.97L694.58 94.06L692.04 97.09L686.97 103.14C673.4 119.25 659.33 134.94 644.65 150.05C629.99 165.17 614.88 179.85 599.03 193.72Z" />
						</g>
					</g>
				</g>
				<g id="&lt;Clip Group&gt;" clip-path="url(#cp2)">
					<g id="&lt;Group&gt;">
						<path id="&lt;Path&gt;" class="shp5" d="M0 344.52C136.68 387.23 280.39 376.93 431.13 313.59" />
						<path id="&lt;Path&gt;" class="shp6" d="M0 354.37C136.86 395.41 279.68 383.57 428.46 318.84" />
						<path id="&lt;Path&gt;" class="shp7" d="M0 364.23C137.04 403.59 278.97 390.21 425.79 324.09" />
						<path id="&lt;Path&gt;" class="shp8" d="M0 374.08C137.22 411.77 278.26 396.85 423.11 329.33" />
						<path id="&lt;Path&gt;" class="shp9" d="M0 383.94C137.4 419.95 277.54 403.5 420.44 334.58" />
						<path id="&lt;Path&gt;" class="shp10" d="M0 393.8C137.57 428.13 276.83 410.14 417.77 339.83" />
						<path id="&lt;Path&gt;" class="shp11" d="M0 403.65C137.75 436.31 276.12 416.78 415.1 345.07" />
						<path id="&lt;Path&gt;" class="shp12" d="M0 413.51C137.93 444.48 275.4 423.42 412.42 350.32" />
						<path id="&lt;Path&gt;" class="shp13" d="M0 423.36C138.11 452.66 274.69 430.06 409.75 355.56" />
						<path id="&lt;Path&gt;" class="shp14" d="M0 433.22C138.29 460.84 273.98 436.71 407.08 360.81" />
						<path id="&lt;Path&gt;" class="shp15" d="M0 443.08C138.47 469.02 273.27 443.35 404.4 366.06" />
						<path id="&lt;Path&gt;" class="shp16" d="M0 452.93C138.64 477.2 272.55 449.99 401.73 371.3" />
						<path id="&lt;Path&gt;" class="shp17" d="M0 462.79C138.82 485.38 271.84 456.63 399.06 376.55" />
						<path id="&lt;Path&gt;" class="shp18" d="M0 472.64C139 493.56 271.13 463.27 396.38 381.8" />
						<path id="&lt;Path&gt;" class="shp19" d="M0 482.5C139.18 501.74 270.42 469.92 393.71 387.04" />
						<path id="&lt;Path&gt;" class="shp20" d="M0 492.36C139.36 509.91 269.7 476.56 391.04 392.29" />
						<path id="&lt;Path&gt;" class="shp21" d="M0 502.21C139.54 518.09 268.99 483.2 388.37 397.53" />
						<path id="&lt;Path&gt;" class="shp22" d="M0 512.07C139.71 526.27 268.28 489.84 385.69 402.78" />
						<path id="&lt;Path&gt;" class="shp23" d="M0 521.92C139.89 534.45 267.56 496.48 383.02 408.03" />
						<path id="&lt;Path&gt;" class="shp24" d="M0 531.78C140.07 542.63 266.85 503.13 380.35 413.27" />
						<path id="&lt;Path&gt;" class="shp25" d="M0 541.64C140.25 550.81 266.14 509.77 377.67 418.52" />
						<path id="&lt;Path&gt;" class="shp4" d="M0 551.49C140.43 558.99 265.43 516.41 375 423.77" />
					</g>
				</g>
			</g>
			<g id="&lt;Group&gt;">
				<path id="&lt;Path&gt;" class="shp4" d="M352.81 222.36L0 222.36" />
				<path id="&lt;Path&gt;" class="shp4" d="M0 124.36L418.97 124.36" />
				<path id="&lt;Path&gt;" class="shp4" d="M488.36 107.36L192.36 107.36" />
				<path id="&lt;Path&gt;" class="shp4" d="M282.96 68.36L82.84 68.36" />
				<path id="&lt;Path&gt;" class="shp4" d="M432.98 259.31L90.36 259.31" />
				<path id="&lt;Path&gt;" class="shp4" d="M495.36 167.36L375.24 167.36" />
				<path id="&lt;Path&gt;" class="shp4" d="M458.36 181.36L356.13 181.36" />
			</g>
			<g id="&lt;Group&gt;">
				<path id="&lt;Path&gt;" class="shp4" d="M446.12 348L643.36 348" />
				<path id="&lt;Path&gt;" class="shp4" d="M576.36 397.05L714.36 397.05" />
				<path id="&lt;Path&gt;" class="shp4" d="M558.36 384.05L658.36 384.05" />
				<path id="&lt;Path&gt;" class="shp4" d="M622.36 278.05L750 278.05" />
				<path id="&lt;Path&gt;" class="shp4" d="M368.01 429.56L551.36 429.56" />
				<path id="&lt;Path&gt;" class="shp4" d="M495.36 452.05L672.36 452.05" />
				<path id="&lt;Path&gt;" class="shp4" d="M606.18 255.05L693.36 255.05" />
				<path id="&lt;Path&gt;" class="shp4" d="M672.36 238.05L750 238.05" />
			</g>
			<g id="&lt;Group&gt;">
				<path id="&lt;Path&gt;" class="shp26" d="M566.4 168.67C566.4 190.22 548.93 207.69 527.38 207.69C505.83 207.69 488.36 190.22 488.36 168.67C488.36 147.12 505.83 129.65 527.38 129.65C548.93 129.65 566.4 147.12 566.4 168.67Z" />
				<path id="&lt;Path&gt;" class="shp27" d="M276.49 309.05C276.49 330.61 259.02 348.08 237.47 348.08C215.92 348.08 198.45 330.61 198.45 309.05C198.45 287.5 215.92 270.03 237.47 270.03C259.02 270.03 276.49 287.5 276.49 309.05Z" />
				<path id="&lt;Path&gt;" class="shp28" d="M222.9 362.05C222.9 383.61 205.43 401.08 183.88 401.08C162.33 401.08 144.86 383.61 144.86 362.05C144.86 340.5 162.33 323.03 183.88 323.03C205.43 323.03 222.9 340.5 222.9 362.05Z" />
				<path id="&lt;Path&gt;" class="shp29" d="M668 232.48C668 262.75 643.46 287.3 613.18 287.3C582.9 287.3 558.36 262.75 558.36 232.48C558.36 202.2 582.9 177.66 613.18 177.66C643.46 177.66 668 202.2 668 232.48Z" />
				<path id="&lt;Path&gt;" class="shp30" d="M458.67 349.31C458.67 379.58 434.12 404.13 403.85 404.13C373.57 404.13 349.03 379.58 349.03 349.31C349.03 319.03 373.57 294.49 403.85 294.49C434.12 294.49 458.67 319.03 458.67 349.31Z" />
			</g>
		</g>
	</g>
</svg>