<?xml version="1.0" standalone="no"?>
<!DOCTYPE svg PUBLIC "-//W3C//DTD SVG 20010904//EN"
 "http://www.w3.org/TR/2001/REC-SVG-20010904/DTD/svg10.dtd">
<svg version="1.0" xmlns="http://www.w3.org/2000/svg"
 width="84.000000pt" height="84.000000pt" viewBox="0 0 84.000000 84.000000"
 preserveAspectRatio="xMidYMid meet">
<metadata>
Created by potrace 1.14, written by Peter Selinger 2001-2017
</metadata>
<g transform="translate(0.000000,84.000000) scale(0.100000,-0.100000)"
fill="#000000" stroke="none">
<path d="M533 806 c-41 -35 -44 -87 -6 -112 32 -21 61 -27 83 -18 8 4 20 8 25
10 6 1 19 5 30 9 11 4 16 3 10 -2 -5 -4 -11 -15 -13 -23 -1 -8 -10 -32 -19
-52 l-16 -38 -38 35 c-50 45 -89 64 -162 79 -151 31 -306 -47 -377 -189 -21
-42 -25 -64 -25 -140 0 -109 22 -162 100 -241 78 -79 184 -110 306 -91 30 5
65 3 104 -8 33 -8 70 -15 84 -15 23 0 23 1 8 18 -9 10 -22 33 -28 50 -10 29
-8 35 20 67 37 43 55 77 70 132 12 45 48 73 91 73 28 0 33 21 46 196 12 152
-34 235 -150 269 -71 21 -110 19 -143 -9z m-7 -83 c-11 -11 -19 6 -11 24 8 17
8 17 12 0 3 -10 2 -21 -1 -24z m42 2 c-4 -35 -22 -36 -25 -2 -1 18 3 27 13 27
11 0 14 -8 12 -25z m50 2 c6 -5 12 -14 11 -20 0 -9 -2 -9 -6 1 -2 6 -9 12 -14
12 -4 0 -6 -7 -3 -15 4 -9 0 -15 -9 -15 -9 0 -14 9 -14 24 0 24 10 28 35 13z"/>
</g>
</svg>
